REM MD5 0dc4296844a5d6c5fb7a900b6d4d372d
FILE "Euro Demo 06-99 (Germany).bin" BINARY
  TRACK 01 MODE2/2352
    INDEX 01 00:00:00
  TRACK 02 AUDIO
    INDEX 00 16:58:59
    INDEX 01 17:00:59
  TRACK 03 AUDIO
    INDEX 00 17:30:48
    INDEX 01 17:32:48
  TRACK 04 AUDIO
    INDEX 00 20:34:10
    INDEX 01 20:36:10
REM LEADOUT 23:37:41
